<svg xmlns="http://www.w3.org/2000/svg" width="383.051" height="326.541" viewBox="0 0 383.051 326.541"><g transform="matrix(0.899, -0.438, 0.438, 0.899, -2140.827, -1006.106)" opacity="0.24"><g transform="translate(1452.837 1904.837)" opacity="0.23"><path d="M159.39,298.668a4.778,4.778,0,0,0-4.273,2.638l-9.549,19.1a4.774,4.774,0,0,0,4.271,6.908H264.426a4.777,4.777,0,0,0,4.273-6.908l-9.551-19.1a4.773,4.773,0,0,0-4.271-2.638Zm-1.825,19.1,4.776-9.549h89.586l4.775,9.549Zm0,0" transform="translate(-63.901 -131.563)"/><path d="M4.776,66.843h42.97a4.78,4.78,0,0,0,3.374-1.4l6.174-6.174L73.015,74.991a4.772,4.772,0,0,0,3.377,1.4h19.1a4.767,4.767,0,0,0,3.375-1.4L114.587,59.27l6.172,6.174a25.06,25.06,0,0,0,35.4,0,4.774,4.774,0,0,0,0-6.751L98.864,1.4A4.767,4.767,0,0,0,95.49,0H4.776A4.775,4.775,0,0,0,0,4.776V62.068a4.776,4.776,0,0,0,4.775,4.775Zm88.736,0H78.368L64.044,52.519l7.573-7.573L82.564,55.9a4.774,4.774,0,0,0,6.751,0l10.947-10.95,7.573,7.573ZM145.5,61.537a15.524,15.524,0,0,1-17.987-2.846L89.315,20.5a4.774,4.774,0,1,0-6.751,6.751L93.512,38.2l-7.573,7.573L74.993,34.819a4.774,4.774,0,0,0-6.751,0L45.768,57.293H33.422V9.549H93.511ZM9.549,9.549H23.873V57.295H9.549Zm0,0" transform="translate(0 -0.001)"/><path d="M223.184,164.407v-9.791h4.776v-9.549h-19.1v9.549h4.773v9.791a47.806,47.806,0,0,0-42.968,47.5v4.773a4.774,4.774,0,0,0,4.773,4.775h85.941a4.774,4.774,0,0,0,4.773-4.775V211.91a47.807,47.807,0,0,0-42.97-47.5Zm-42.968,47.5a38.195,38.195,0,1,1,76.39,0Zm0,0" transform="translate(-75.179 -63.902)"/><path d="M281.69,162.133H162.33v9.549H276.917V281.5H9.549V171.682H124.136v-9.549H4.776A4.775,4.775,0,0,0,0,166.908v119.36a4.776,4.776,0,0,0,4.775,4.775H128.909v39.624L79.533,348.622a4.775,4.775,0,0,0,1.633,9.262H205.3a4.775,4.775,0,0,0,1.633-9.262l-49.376-17.954V291.044H281.692a4.776,4.776,0,0,0,4.773-4.776V166.908A4.775,4.775,0,0,0,281.69,162.133Zm-173.424,186.2,26.259-9.549H151.94l26.259,9.549Zm39.74-19.1h-9.549V291.044h9.549Zm0,0" transform="translate(-0.001 -71.42)"/><path d="M218.594,222.309l-7.114-6.369a33.47,33.47,0,0,1,24.909-11.14v9.549A23.906,23.906,0,0,0,218.594,222.309Zm0,0" transform="translate(-93.157 -90.215)"/><path d="M205.814,255.763h-9.549a33.362,33.362,0,0,1,1.9-11.142l9,3.184a23.8,23.8,0,0,0-1.357,7.958Zm0,0" transform="translate(-86.455 -107.755)"/></g></g></svg>