<svg xmlns="http://www.w3.org/2000/svg" width="43.001" height="43" viewBox="0 0 43.001 43"><path d="M130.646,283.839a8.76,8.76,0,0,1-14.145,0,7.271,7.271,0,0,0-3.43,3.431l-1.312,2.763a15,15,0,0,0,23.627,0l-1.313-2.766A7.266,7.266,0,0,0,130.646,283.839Z" transform="translate(-102.074 -259.237)" fill="#fff"/><path d="M171.309,123.482c4.016,0,7.283-3.767,7.283-8.4s-3.268-8.4-7.283-8.4-7.284,3.768-7.284,8.4S167.293,123.482,171.309,123.482Zm0-13.929c2.436,0,4.416,2.48,4.416,5.532s-1.98,5.53-4.416,5.53-4.418-2.482-4.418-5.53S168.874,109.553,171.309,109.553Z" transform="translate(-149.809 -97.44)" fill="#fff"/><path d="M21.5,0A21.5,21.5,0,1,0,43,21.5,21.524,21.524,0,0,0,21.5,0Zm0,38.7A17.2,17.2,0,1,1,38.7,21.5,17.219,17.219,0,0,1,21.5,38.7Z" transform="translate(0 -0.005)" fill="#fff"/></svg>